<?xml version="1.0" encoding="UTF-8"?>
<!DOCTYPE svg PUBLIC "-//W3C//DTD SVG 1.1//EN" "http://www.w3.org/Graphics/SVG/1.1/DTD/svg11.dtd">
<svg xmlns="http://www.w3.org/2000/svg" version="1.1" width="1058px" height="282px" style="shape-rendering:geometricPrecision; text-rendering:geometricPrecision; image-rendering:optimizeQuality; fill-rule:evenodd; clip-rule:evenodd" xmlns:xlink="http://www.w3.org/1999/xlink">
<g><path fill="currentColor" d="M 19.5,-0.5 C 23.8333,-0.5 28.1667,-0.5 32.5,-0.5C 51.4184,6.40266 56.585,19.0693 48,37.5C 36.5845,48.542 23.7512,50.3753 9.5,43C 4.28043,39.3114 0.947096,34.4781 -0.5,28.5C -0.5,25.1667 -0.5,21.8333 -0.5,18.5C 2.29907,8.09968 8.96573,1.76634 19.5,-0.5 Z"/></g>
<g><path fill="currentColor" d="M 252.5,1.5 C 266.833,1.5 281.167,1.5 295.5,1.5C 295.333,29.1687 295.5,56.8353 296,84.5C 311.314,66.2809 330.814,59.1142 354.5,63C 385.632,69.7961 405.466,88.6295 414,119.5C 422.352,156.113 412.185,186.28 383.5,210C 360.209,223.744 336.209,225.077 311.5,214C 305.597,210.306 300.431,205.806 296,200.5C 293.872,206.345 292.372,212.345 291.5,218.5C 278.5,218.5 265.5,218.5 252.5,218.5C 252.5,146.167 252.5,73.8333 252.5,1.5 Z M 329.5,99.5 C 356.497,100.663 370.83,114.83 372.5,142C 369.472,174.162 352.138,187.495 320.5,182C 303.069,174.495 294.403,161.161 294.5,142C 295.185,118.504 306.851,104.338 329.5,99.5 Z"/></g>
<g><path fill="currentColor" d="M 701.5,1.5 C 715.833,1.5 730.167,1.5 744.5,1.5C 744.5,73.8333 744.5,146.167 744.5,218.5C 731.5,218.5 718.5,218.5 705.5,218.5C 704.318,211.772 702.818,205.105 701,198.5C 691.784,211.366 679.284,218.866 663.5,221C 620.804,223.962 593.97,204.796 583,163.5C 576.205,132.173 583.372,104.673 604.5,81C 623.908,64.3169 646.242,58.6502 671.5,64C 683.967,66.6416 693.8,73.1416 701,83.5C 701.5,56.1687 701.667,28.8354 701.5,1.5 Z M 659.5,99.5 C 686.755,100.588 700.755,114.755 701.5,142C 701.272,167.39 688.606,181.557 663.5,184.5C 638.583,181.412 625.583,167.245 624.5,142C 625.185,118.504 636.851,104.338 659.5,99.5 Z"/></g>
<g><path fill="currentColor" d="M 572.5,2.5 C 597.074,1.23039 607.241,12.5637 603,36.5C 597.812,46.1827 589.645,50.8494 578.5,50.5C 556.399,47.8887 548.566,35.8887 555,14.5C 559.39,8.25811 565.223,4.25811 572.5,2.5 Z"/></g>
<g><path fill="currentColor" d="M 169.5,62.5 C 214.698,59.1866 238.198,80.1866 240,125.5C 240.5,156.498 240.667,187.498 240.5,218.5C 226.167,218.5 211.833,218.5 197.5,218.5C 197.956,186.131 197.456,153.798 196,121.5C 190.05,102.27 177.216,95.1035 157.5,100C 145.786,104.237 138.286,112.404 135,124.5C 133.538,155.792 133.038,187.125 133.5,218.5C 119.167,218.5 104.833,218.5 90.5,218.5C 90.5,167.5 90.5,116.5 90.5,65.5C 103.167,65.5 115.833,65.5 128.5,65.5C 129.02,73.0168 130.187,80.3502 132,87.5C 141.192,74.1305 153.692,65.7971 169.5,62.5 Z"/></g>
<g><path fill="currentColor" d="M 812.5,62.5 C 823.953,61.9489 835.287,62.7822 846.5,65C 866.164,65.5 885.831,65.6666 905.5,65.5C 905.5,74.1667 905.5,82.8333 905.5,91.5C 897.488,92.0565 889.488,92.7232 881.5,93.5C 888.102,112.846 886.602,131.512 877,149.5C 866.585,163.224 852.751,171.057 835.5,173C 813.295,171.209 790.961,170.209 768.5,170C 771.798,165.7 775.465,161.7 779.5,158C 762.39,139.858 758.224,119.025 767,95.5C 776.793,77.0263 791.96,66.0263 812.5,62.5 Z M 819.5,95.5 C 842.745,94.9038 851.911,105.904 847,128.5C 842.058,137.057 834.558,141.057 824.5,140.5C 809.231,140.891 800.897,133.558 799.5,118.5C 800.499,105.839 807.165,98.1718 819.5,95.5 Z"/></g>
<g><path fill="currentColor" d="M 1057.5,126.5 C 1057.5,135.167 1057.5,143.833 1057.5,152.5C 1020.5,152.5 983.5,152.5 946.5,152.5C 952.084,181.563 969.084,191.73 997.5,183C 1002.02,179.977 1005.69,176.144 1008.5,171.5C 1023.49,170.334 1038.49,170.167 1053.5,171C 1044.74,197.422 1026.74,213.755 999.5,220C 968.766,225.95 942.599,217.783 921,195.5C 904.285,171.808 899.618,145.808 907,117.5C 915.814,89.0181 934.647,71.1848 963.5,64C 998.653,56.8162 1026.49,67.6495 1047,96.5C 1052.23,106.026 1055.73,116.026 1057.5,126.5 Z M 974.5,97.5 C 996.259,95.0304 1009.59,104.364 1014.5,125.5C 992.167,126.833 969.833,126.833 947.5,125.5C 951.173,110.83 960.173,101.497 974.5,97.5 Z"/></g>
<g><path fill="currentColor" d="M 32.5,65.5 C 46.8333,65.5 61.1667,65.5 75.5,65.5C 75.5,116.5 75.5,167.5 75.5,218.5C 61.1667,218.5 46.8333,218.5 32.5,218.5C 32.5,167.5 32.5,116.5 32.5,65.5 Z"/></g>
<g><path fill="currentColor" d="M 510.5,66.5 C 530.167,66.5 549.833,66.5 569.5,66.5C 569.5,117.167 569.5,167.833 569.5,218.5C 555.167,218.5 540.833,218.5 526.5,218.5C 526.5,182.5 526.5,146.5 526.5,110.5C 514.946,109.755 503.613,110.922 492.5,114C 480.752,119.292 474.252,128.458 473,141.5C 472.5,168.165 472.333,194.831 472.5,221.5C 458.167,221.5 443.833,221.5 429.5,221.5C 429.5,170.5 429.5,119.5 429.5,68.5C 442.167,68.5 454.833,68.5 467.5,68.5C 468.461,76.8907 469.794,85.224 471.5,93.5C 481.253,79.7915 494.253,70.7915 510.5,66.5 Z"/></g>
<g><path fill="currentColor" d="M 841.5,281.5 C 832.167,281.5 822.833,281.5 813.5,281.5C 795.069,279.851 779.569,272.184 767,258.5C 757.585,245.152 754.919,230.485 759,214.5C 762.625,203.875 769.458,196.041 779.5,191C 793.278,185.444 807.611,182.444 822.5,182C 847.498,181.5 872.498,181.333 897.5,181.5C 897.663,183.857 897.497,186.19 897,188.5C 892.107,192.391 886.94,195.891 881.5,199C 900.162,216.038 903.662,235.871 892,258.5C 886.048,266.064 878.548,271.564 869.5,275C 860.252,278.144 850.918,280.31 841.5,281.5 Z M 838.5,209.5 C 846.335,208.833 852.502,211.833 857,218.5C 863.468,233.069 858.968,242.569 843.5,247C 831.721,250.569 820.055,250.236 808.5,246C 795.117,238.638 793.117,228.971 802.5,217C 805.674,215.275 809.007,213.942 812.5,213C 821.33,211.976 829.997,210.81 838.5,209.5 Z"/></g>
</svg>
